# xmcd CD database file
#
# Track frame offsets:
#	150
#	18915
#	32395
#	49418
#	60863
#	78013
#	92488
#	107450
#	122076
#	138283
#	156786
#	175472
#	192679
#	212494
#
# Disc length: 3035 seconds
#
# Revision: 3
# Processed by: cddbd v1.5.2PL0 Copyright (c) Steve Scherf et al.
# Submitted via: CDex 1.51
#
DISCID=aa0bd90e
DTITLE=Stryk - Thorough
DYEAR=2011
DGENRE=Jazz
TTITLE0=Woke up
TTITLE1=Too Hard Too Real
TTITLE2=Keen Peak Shit
TTITLE3=Sayin You Dont
TTITLE4=Hear Em Talkin
TTITLE5=Many Places
TTITLE6=Too potent
TTITLE7=Spread Ya Wings
TTITLE8=Where we goin
TTITLE9=Hard To Say
TTITLE10=Thorough
TTITLE11=So Far
TTITLE12=You Got Me
TTITLE13=What She Want
EXTD=YEAR: 2011
EXTT0=
EXTT1=
EXTT2=
EXTT3=
EXTT4=
EXTT5=
EXTT6=
EXTT7=
EXTT8=
EXTT9=
EXTT10=
EXTT11=
EXTT12=
EXTT13=
PLAYORDER=
